<svg id="svg" xmlns="http://www.w3.org/2000/svg" xmlns:xlink="http://www.w3.org/1999/xlink" width="400" height="266.6666666666667" viewBox="0, 0, 400,266.6666666666667"><g id="svgg"><path id="path0" d="M187.333 37.291 C 155.087 42.793,134.526 63.176,106.182 117.736 C 97.252 134.925,84.557 156.000,83.132 156.000 C 82.870 156.000,83.046 149.159,83.523 140.799 L 84.391 125.598 77.807 119.013 C 72.181 113.387,64.850 109.373,63.205 111.017 C 62.941 111.282,62.373 125.261,61.944 142.082 C 61.515 158.904,60.926 173.878,60.634 175.358 C 60.149 177.821,41.994 189.105,40.661 187.772 C 39.886 186.997,42.438 140.805,43.963 128.000 C 44.706 121.767,45.318 112.091,45.323 106.498 L 45.333 96.328 38.492 93.385 C 21.070 85.891,21.987 84.099,20.028 129.457 C 17.375 190.878,16.600 196.613,10.799 197.774 C -2.707 200.475,-2.858 218.591,10.551 227.627 C 25.707 237.841,66.228 224.956,90.345 202.255 C 103.639 189.741,118.242 169.558,132.010 144.667 C 134.444 140.267,137.615 134.567,139.056 132.000 C 140.497 129.433,144.114 122.833,147.093 117.333 C 150.073 111.833,154.552 104.033,157.047 100.000 L 161.583 92.667 160.785 104.000 C 157.412 151.892,158.118 154.982,175.792 169.667 C 183.672 176.214,183.386 177.512,185.184 127.000 C 186.091 101.517,186.945 78.267,187.083 75.333 L 187.333 70.000 193.862 69.586 C 197.452 69.358,201.952 69.817,203.862 70.607 L 207.333 72.043 207.022 90.355 C 206.850 100.426,206.058 122.974,205.261 140.462 C 204.464 157.949,204.053 172.497,204.347 172.791 C 208.093 176.537,227.954 161.896,230.427 153.566 C 231.875 148.689,235.950 102.658,236.056 89.985 L 236.111 83.333 240.398 88.180 C 242.756 90.846,247.467 98.286,250.867 104.712 L 257.049 116.398 260.314 111.199 C 262.110 108.339,265.572 102.400,268.008 98.000 C 270.443 93.600,273.474 88.145,274.743 85.877 L 277.051 81.755 270.746 73.211 C 250.317 45.525,218.748 31.930,187.333 37.291 M366.000 37.317 C 332.410 44.566,311.319 61.535,288.921 99.333 C 281.597 111.692,277.801 118.537,265.661 141.270 C 228.127 211.558,177.192 219.424,146.734 159.636 C 144.210 154.682,142.952 155.417,138.001 164.743 C 135.688 169.101,131.850 176.159,129.472 180.427 C 124.281 189.746,124.070 189.247,140.337 206.191 C 182.244 249.842,232.700 243.221,273.887 188.667 C 280.729 179.605,291.904 162.719,293.743 158.667 C 294.241 157.567,295.236 155.767,295.953 154.667 C 298.637 150.547,313.333 125.063,313.333 124.528 C 313.333 124.222,316.754 118.441,320.935 111.682 C 335.866 87.545,353.943 74.925,380.807 69.886 C 394.151 67.382,399.360 48.732,388.935 40.781 C 384.015 37.028,374.205 35.547,366.000 37.317 M10.153 44.118 C -5.845 56.702,3.324 73.821,27.293 76.120 C 47.806 78.087,63.498 85.274,78.115 99.395 C 89.054 109.965,87.595 110.158,95.946 97.037 C 104.117 84.200,104.302 85.093,90.553 71.036 C 68.397 48.385,23.737 33.433,10.153 44.118 M371.000 93.466 L 365.333 97.479 365.333 119.491 C 365.333 139.403,364.551 148.130,359.997 179.025 C 359.265 183.988,358.667 189.496,358.667 191.265 C 358.667 195.154,353.668 194.292,346.339 189.138 C 338.707 183.772,338.822 184.107,340.672 172.582 C 343.896 152.500,346.319 113.315,344.333 113.352 C 340.429 113.425,321.508 144.808,320.720 152.517 C 319.549 163.977,316.135 178.125,312.582 186.246 L 309.557 193.158 316.445 199.643 C 339.744 221.575,384.517 236.084,394.192 224.836 C 400.964 216.963,396.672 204.582,386.327 202.145 L 382.653 201.279 383.427 191.640 C 383.852 186.338,384.785 177.800,385.498 172.667 C 386.212 167.533,387.153 146.683,387.588 126.333 L 388.380 89.333 382.524 89.393 C 378.219 89.436,375.165 90.516,371.000 93.466 " stroke="none" fill="#000000" fill-rule="evenodd"></path></g></svg>