<svg id="svg" xmlns="http://www.w3.org/2000/svg" xmlns:xlink="http://www.w3.org/1999/xlink" width="400" height="266.6666666666667" viewBox="0, 0, 400,266.6666666666667"><g id="svgg"><path id="path0" d="M248.492 8.185 L 232.398 16.369 231.489 37.185 L 230.580 58.000 234.290 61.047 C 236.330 62.723,240.850 65.668,244.333 67.592 C 251.160 71.363,251.357 71.924,249.814 83.179 L 248.962 89.397 245.481 87.098 C 219.017 69.624,182.844 70.314,156.541 88.796 C 139.151 101.015,128.911 115.121,107.637 156.164 C 99.962 170.970,86.741 192.655,85.981 191.683 C 85.831 191.491,86.174 187.733,86.742 183.333 C 89.421 162.591,86.495 154.685,73.936 148.726 C 67.185 145.522,67.430 144.042,65.058 202.263 L 64.667 211.858 55.558 216.710 C 50.549 219.378,46.165 221.276,45.816 220.927 C 45.237 220.348,46.260 199.923,49.266 152.000 C 49.887 142.100,50.164 133.620,49.881 133.155 C 48.709 131.227,37.579 126.913,32.645 126.473 L 27.333 126.000 27.059 134.000 C 26.909 138.400,26.170 154.000,25.417 168.667 C 24.664 183.333,23.682 202.906,23.233 212.161 L 22.418 228.989 17.228 230.701 C -7.333 238.807,10.840 267.332,37.672 262.790 C 79.762 255.665,106.531 231.616,137.992 172.667 C 141.514 166.067,144.823 160.067,145.345 159.333 C 145.866 158.600,148.882 153.200,152.046 147.333 C 155.210 141.467,158.936 134.867,160.325 132.667 L 162.851 128.667 162.071 139.333 C 158.860 183.285,162.518 196.789,180.148 206.048 L 183.629 207.876 184.451 198.938 C 184.903 194.022,185.608 175.600,186.018 158.000 C 186.428 140.400,187.099 121.584,187.509 116.186 L 188.255 106.372 196.791 106.916 C 208.994 107.693,208.513 106.156,206.812 138.881 C 205.999 154.533,205.333 176.199,205.333 187.028 L 205.333 206.717 209.000 205.862 C 228.154 201.393,234.570 183.187,234.650 133.079 C 234.659 127.439,235.210 122.488,235.874 122.078 C 237.354 121.163,244.831 131.394,250.772 142.461 C 256.182 152.539,255.667 152.575,261.943 141.667 C 275.024 118.927,275.350 117.718,279.085 78.026 C 279.263 76.134,282.728 73.671,291.299 69.345 C 305.208 62.324,304.378 64.219,305.970 35.857 C 306.813 20.836,306.676 18.955,304.682 18.191 C 303.455 17.720,296.593 13.434,289.432 8.667 C 272.122 -2.857,270.247 -2.879,248.492 8.185 M359.333 75.610 C 340.140 80.172,320.475 91.352,308.627 104.436 C 296.896 117.391,288.782 130.370,265.972 172.667 C 226.963 245.002,178.616 253.340,148.072 193.000 C 145.826 188.563,145.085 188.462,143.267 192.344 C 142.497 193.988,138.747 201.124,134.933 208.202 C 126.576 223.715,126.467 220.726,135.793 231.861 C 173.886 277.342,220.653 278.608,261.207 235.256 C 274.597 220.942,285.149 204.503,316.352 149.340 C 329.404 126.266,345.113 114.525,371.751 107.933 C 385.092 104.631,389.333 100.310,389.333 90.019 C 389.333 78.012,376.057 71.635,359.333 75.610 M17.597 80.841 C 2.335 88.557,8.857 111.997,26.267 112.001 C 44.655 112.005,67.586 121.592,81.852 135.240 C 86.888 140.058,91.382 143.968,91.838 143.929 C 93.288 143.804,105.333 123.982,105.333 121.720 C 105.333 116.491,80.990 95.202,67.888 88.973 C 49.467 80.215,26.259 76.463,17.597 80.841 M370.003 127.401 C 361.686 131.806,361.336 132.604,361.302 147.207 C 361.269 161.000,359.662 183.068,357.312 202.000 C 356.584 207.867,355.613 216.053,355.155 220.191 L 354.322 227.715 350.297 226.561 C 336.934 222.728,335.053 218.493,337.781 198.387 C 340.283 179.943,341.801 149.333,340.213 149.333 C 335.120 149.333,318.522 179.202,316.669 191.701 C 314.219 208.234,312.939 213.331,309.493 220.297 L 306.703 225.936 312.352 231.728 C 325.489 245.199,343.933 254.699,366.000 259.360 C 379.918 262.299,383.556 261.983,388.103 257.436 C 395.650 249.888,391.572 237.181,380.919 235.050 C 377.087 234.284,377.053 234.196,377.981 227.471 C 379.533 216.227,381.088 198.090,382.796 171.333 C 385.503 128.909,383.051 120.489,370.003 127.401 " stroke="none" fill="#000000" fill-rule="evenodd"></path></g></svg>