<svg id="svg" xmlns="http://www.w3.org/2000/svg" xmlns:xlink="http://www.w3.org/1999/xlink" width="400" height="266.6666666666667" viewBox="0, 0, 400,266.6666666666667"><g id="svgg"><path id="path0" d="M193.333 26.007 C 162.725 32.039,137.209 55.145,113.096 98.667 C 105.495 112.384,101.422 119.834,96.691 128.667 C 80.712 158.503,77.106 163.879,65.710 174.858 C 53.925 186.213,48.315 189.614,32.995 194.694 C 16.179 200.271,12.518 202.630,10.564 209.149 C 7.813 218.333,12.408 227.205,20.724 228.765 L 25.333 229.630 25.333 246.815 L 25.333 264.000 40.632 264.000 L 55.931 264.000 56.299 243.772 L 56.667 223.545 62.543 220.439 C 65.775 218.731,68.911 217.333,69.512 217.333 C 70.113 217.333,70.769 227.983,70.969 241.000 L 71.333 264.667 86.000 264.667 L 100.667 264.667 101.020 225.529 L 101.374 186.391 105.815 179.529 C 112.702 168.887,115.645 163.573,133.986 128.667 C 144.902 107.892,148.240 102.096,151.266 98.667 C 152.883 96.833,156.357 92.325,158.985 88.649 C 183.798 53.940,216.692 49.353,242.808 76.960 C 256.551 91.488,262.575 100.222,274.330 122.667 C 294.629 161.423,300.632 172.296,307.543 182.817 L 313.333 191.634 313.333 228.484 L 313.333 265.333 328.667 265.333 L 344.000 265.333 344.000 242.000 C 344.000 229.167,344.208 218.667,344.462 218.667 C 344.716 218.667,346.666 219.530,348.795 220.585 C 350.924 221.640,354.317 223.125,356.333 223.885 L 360.000 225.267 360.000 245.345 L 360.000 265.424 374.333 265.045 L 388.667 264.667 389.038 247.078 C 389.394 230.218,389.532 229.451,392.371 228.587 C 398.587 226.694,400.000 224.119,400.000 214.692 C 400.000 203.206,398.088 201.346,379.962 195.193 C 355.682 186.951,339.472 173.460,327.264 151.333 C 325.260 147.702,317.021 132.554,311.288 121.959 C 308.696 117.170,305.494 111.320,304.172 108.959 C 302.850 106.598,299.773 101.067,297.334 96.667 C 294.895 92.267,291.887 87.167,290.648 85.333 C 289.410 83.500,286.081 78.400,283.250 74.000 C 271.762 56.146,245.708 33.869,230.317 28.742 C 216.233 24.049,206.806 23.352,193.333 26.007 " stroke="none" fill="#000000" fill-rule="evenodd"></path></g></svg>