<svg id="svg" xmlns="http://www.w3.org/2000/svg" xmlns:xlink="http://www.w3.org/1999/xlink" width="400" height="266.6666666666667" viewBox="0, 0, 400,266.6666666666667"><g id="svgg"><path id="path0" d="M314.467 2.986 C 306.005 10.205,305.840 11.740,311.981 26.114 C 323.266 52.528,331.146 73.357,336.836 91.815 L 338.629 97.630 332.524 96.715 C 319.775 94.803,315.673 91.930,312.228 82.500 C 304.561 61.517,295.860 41.338,294.476 41.335 C 292.530 41.331,288.926 59.483,288.755 70.149 L 288.667 75.632 269.906 61.307 C 205.038 11.775,169.067 1.815,134.522 23.822 C 102.527 44.204,96.610 63.198,92.899 157.431 C 92.622 164.451,91.802 171.257,91.076 172.555 C 89.625 175.148,89.856 175.527,82.016 157.750 C 78.141 148.964,75.718 147.092,64.303 144.060 C 54.685 141.506,54.449 142.780,61.599 158.667 C 68.741 174.538,72.629 183.018,76.825 191.882 C 81.442 201.634,81.526 201.078,73.618 213.094 C 68.168 221.374,67.724 221.178,62.056 208.000 C 60.006 203.233,56.905 196.166,55.164 192.294 C 53.424 188.422,52.000 184.987,52.000 184.661 C 52.000 184.334,50.282 180.302,48.182 175.700 C 46.082 171.098,41.769 161.183,38.598 153.667 L 32.832 140.000 27.416 140.102 C 19.784 140.247,11.237 143.125,11.758 145.376 C 11.991 146.386,13.273 149.639,14.606 152.606 C 15.939 155.573,18.230 160.700,19.696 164.000 C 31.653 190.902,33.281 194.517,38.830 206.466 C 41.674 212.589,44.000 217.824,44.000 218.099 C 44.000 218.374,45.800 222.530,48.000 227.333 C 52.848 237.917,52.848 236.792,48.000 240.871 C 42.168 245.779,42.375 252.932,48.544 259.664 C 57.723 269.680,73.876 265.400,91.398 248.310 C 108.478 231.652,117.300 212.575,123.299 179.333 C 124.352 173.499,127.934 111.886,127.970 99.000 C 128.009 84.716,128.845 85.076,137.260 103.000 C 153.396 137.366,153.716 137.766,169.506 143.265 C 183.152 148.017,183.238 146.482,170.831 119.667 C 150.592 75.923,145.311 64.645,143.995 62.351 C 141.699 58.350,142.513 56.200,147.643 52.715 C 158.819 45.121,160.051 46.754,186.323 104.000 C 191.608 115.514,200.349 133.867,200.861 134.523 C 201.685 135.581,205.890 131.175,209.561 125.406 C 216.035 115.233,213.617 102.818,198.848 70.398 C 194.981 61.909,190.667 50.786,190.667 49.303 C 190.667 47.404,203.713 52.860,211.646 58.077 C 215.485 60.601,219.211 62.667,219.926 62.667 C 221.166 62.667,232.794 71.178,252.327 86.382 C 288.889 114.842,299.898 121.572,320.667 128.159 C 339.394 134.098,375.314 128.228,381.409 118.232 C 387.805 107.743,380.705 96.000,367.967 96.000 L 361.860 96.000 359.399 89.000 C 356.072 79.539,341.747 43.449,338.362 36.000 C 320.030 -4.336,321.183 -2.743,314.467 2.986 " stroke="none" fill="#000000" fill-rule="evenodd"></path></g></svg>